<?xml version="1.0" encoding="UTF-8" standalone="no"?>
<!-- Created with Inkscape (http://www.inkscape.org/) -->

<svg
   version="1.1"
   id="svg2"
   width="158.49867"
   height="100.34214"
   viewBox="0 0 158.49867 100.34214"
   xmlns="http://www.w3.org/2000/svg"
   xmlns:svg="http://www.w3.org/2000/svg">
  <defs
     id="defs6" />
  <g
     id="g10"
     transform="matrix(1.3333333,0,0,-1.3333333,0,100.34214)">
    <g
       id="g12">
      <path
         d="M 0,75.257 12.484,-10e-4 118.875,18.573 V 75.257 H 0"
         style="fill:#1478c7;fill-opacity:1;fill-rule:nonzero;stroke:none"
         id="path14" />
      <path
         d="m 36.137,57.483 h -5.938 v 10 h 5.938 v -2.172 h -3.235 v -1.578 h 3 v -2.156 h -3 v -1.891 h 3.235 z"
         style="fill:#ffffff;fill-opacity:1;fill-rule:nonzero;stroke:none"
         id="path16" />
      <path
         d="m 40.141,57.483 h -2.672 v 7.75 h 2.672 z m -2.735,9.672 c 0,0.406 0.11,0.703 0.328,0.891 0.219,0.195 0.578,0.297 1.078,0.297 0.5,0 0.864,-0.102 1.094,-0.297 0.227,-0.2 0.344,-0.496 0.344,-0.891 0,-0.781 -0.48,-1.172 -1.438,-1.172 -0.937,0 -1.406,0.391 -1.406,1.172 z"
         style="fill:#ffffff;fill-opacity:1;fill-rule:nonzero;stroke:none"
         id="path18" />
      <path
         d="m 46.746,57.483 v 4.219 c 0,0.519 -0.078,0.91 -0.234,1.172 -0.149,0.258 -0.383,0.39 -0.703,0.39 -0.45,0 -0.778,-0.183 -0.985,-0.546 -0.199,-0.356 -0.297,-0.969 -0.297,-1.844 v -3.391 h -2.672 v 7.75 h 2.016 l 0.344,-0.969 h 0.156 c 0.227,0.364 0.539,0.633 0.938,0.813 0.406,0.187 0.867,0.281 1.39,0.281 0.863,0 1.531,-0.25 2,-0.75 0.477,-0.492 0.719,-1.187 0.719,-2.094 v -5.031 z"
         style="fill:#ffffff;fill-opacity:1;fill-rule:nonzero;stroke:none"
         id="path20" />
      <path
         d="m 60.414,57.483 v 4.219 c 0,0.519 -0.074,0.91 -0.219,1.172 -0.148,0.258 -0.375,0.39 -0.687,0.39 -0.406,0 -0.711,-0.179 -0.906,-0.531 -0.188,-0.344 -0.282,-0.89 -0.282,-1.64 v -3.61 h -2.672 v 4.219 c 0,0.519 -0.074,0.91 -0.218,1.172 -0.137,0.258 -0.356,0.39 -0.657,0.39 -0.418,0 -0.726,-0.187 -0.921,-0.562 -0.188,-0.375 -0.282,-0.984 -0.282,-1.828 v -3.391 h -2.672 v 7.75 h 2.016 l 0.344,-0.969 h 0.156 c 0.195,0.364 0.488,0.633 0.875,0.813 0.395,0.187 0.844,0.281 1.344,0.281 1.113,0 1.894,-0.34 2.344,-1.015 h 0.218 c 0.219,0.32 0.52,0.57 0.907,0.75 0.394,0.175 0.828,0.265 1.296,0.265 0.914,0 1.594,-0.234 2.032,-0.703 0.437,-0.469 0.656,-1.184 0.656,-2.141 v -5.031 z"
         style="fill:#ffffff;fill-opacity:1;fill-rule:nonzero;stroke:none"
         id="path22" />
      <path
         d="m 69.445,57.483 -0.5,1.031 h -0.062 c -0.356,-0.449 -0.719,-0.757 -1.094,-0.921 -0.375,-0.165 -0.859,-0.25 -1.453,-0.25 -0.731,0 -1.309,0.218 -1.734,0.656 -0.418,0.437 -0.625,1.051 -0.625,1.844 0,0.832 0.285,1.445 0.859,1.843 0.582,0.407 1.414,0.633 2.5,0.688 l 1.297,0.031 v 0.109 c 0,0.645 -0.313,0.969 -0.938,0.969 -0.574,0 -1.293,-0.195 -2.156,-0.578 l -0.781,1.766 c 0.906,0.457 2.047,0.687 3.422,0.687 0.988,0 1.754,-0.246 2.297,-0.734 0.55,-0.492 0.828,-1.18 0.828,-2.063 v -5.078 z m -1.968,1.75 c 0.32,0 0.597,0.098 0.828,0.297 0.226,0.207 0.343,0.477 0.343,0.813 v 0.593 l -0.625,-0.015 c -0.875,-0.032 -1.312,-0.356 -1.312,-0.969 0,-0.481 0.254,-0.719 0.766,-0.719 z"
         style="fill:#ffffff;fill-opacity:1;fill-rule:nonzero;stroke:none"
         id="path24" />
      <path
         d="m 72.809,68.124 h 2.672 V 57.483 h -2.672 z"
         style="fill:#ffffff;fill-opacity:1;fill-rule:nonzero;stroke:none"
         id="path26" />
      <path
         d="m 23.031,40.608 h -2.078 v 4.469 c 0,0.551 -0.094,0.961 -0.281,1.234 -0.188,0.282 -0.481,0.422 -0.875,0.422 -0.531,0 -0.922,-0.199 -1.172,-0.594 -0.242,-0.398 -0.359,-1.043 -0.359,-1.937 v -3.594 h -2.078 v 7.641 h 1.593 l 0.281,-0.969 h 0.11 c 0.207,0.344 0.504,0.613 0.89,0.813 0.383,0.195 0.833,0.296 1.344,0.296 1.133,0 1.906,-0.371 2.313,-1.109 h 0.187 c 0.207,0.352 0.508,0.625 0.906,0.813 0.395,0.195 0.844,0.296 1.344,0.296 0.875,0 1.532,-0.226 1.969,-0.671 0.445,-0.438 0.672,-1.149 0.672,-2.125 v -4.985 h -2.094 v 4.469 c 0,0.551 -0.094,0.961 -0.281,1.234 -0.18,0.282 -0.465,0.422 -0.86,0.422 -0.511,0 -0.898,-0.183 -1.156,-0.547 -0.25,-0.367 -0.375,-0.949 -0.375,-1.75 z"
         style="fill:#ffffff;fill-opacity:1;fill-rule:nonzero;stroke:none"
         id="path28" />
      <path
         d="m 29.355,50.233 c 0,0.676 0.379,1.016 1.141,1.016 0.758,0 1.141,-0.34 1.141,-1.016 0,-0.324 -0.102,-0.578 -0.297,-0.765 -0.188,-0.18 -0.469,-0.266 -0.844,-0.266 -0.762,0 -1.141,0.344 -1.141,1.031 z m 2.172,-9.625 h -2.078 v 7.641 h 2.078 z"
         style="fill:#ffffff;fill-opacity:1;fill-rule:nonzero;stroke:none"
         id="path30" />
      <path
         d="m 36.781,42.139 c 0.364,0 0.801,0.079 1.313,0.235 v -1.547 c -0.524,-0.238 -1.156,-0.359 -1.906,-0.359 -0.836,0 -1.446,0.207 -1.829,0.625 -0.386,0.425 -0.578,1.062 -0.578,1.906 v 3.687 h -0.984 v 0.875 l 1.141,0.703 0.609,1.61 h 1.328 v -1.625 h 2.141 v -1.563 h -2.141 v -3.687 c 0,-0.293 0.082,-0.512 0.25,-0.656 0.164,-0.137 0.383,-0.204 0.656,-0.204 z"
         style="fill:#ffffff;fill-opacity:1;fill-rule:nonzero;stroke:none"
         id="path32" />
      <path
         d="m 45.203,45.905 h 0.703 c 0.645,0 1.129,0.125 1.453,0.375 0.321,0.258 0.485,0.633 0.485,1.125 0,0.5 -0.137,0.867 -0.406,1.109 -0.274,0.239 -0.696,0.36 -1.266,0.36 h -0.969 z m 4.781,1.578 c 0,-1.074 -0.339,-1.898 -1.015,-2.469 -0.668,-0.562 -1.621,-0.843 -2.86,-0.843 h -0.906 v -3.563 h -2.109 v 10 h 3.187 c 1.207,0 2.125,-0.265 2.75,-0.797 0.633,-0.523 0.953,-1.297 0.953,-2.328 z"
         style="fill:#ffffff;fill-opacity:1;fill-rule:nonzero;stroke:none"
         id="path34" />
      <path
         d="m 55.68,48.389 c 0.281,0 0.515,-0.023 0.703,-0.062 l -0.156,-1.953 c -0.168,0.051 -0.372,0.078 -0.61,0.078 -0.668,0 -1.187,-0.172 -1.562,-0.516 -0.375,-0.343 -0.563,-0.824 -0.563,-1.437 v -3.891 h -2.078 v 7.641 h 1.578 l 0.313,-1.281 h 0.093 c 0.239,0.425 0.563,0.769 0.969,1.031 0.406,0.258 0.844,0.39 1.313,0.39 z"
         style="fill:#ffffff;fill-opacity:1;fill-rule:nonzero;stroke:none"
         id="path36" />
      <path
         d="m 59.215,44.436 c 0,-0.75 0.125,-1.324 0.375,-1.718 0.25,-0.387 0.656,-0.579 1.219,-0.579 0.55,0 0.945,0.192 1.187,0.579 0.25,0.382 0.375,0.957 0.375,1.718 0,0.758 -0.125,1.328 -0.375,1.703 -0.242,0.383 -0.641,0.579 -1.203,0.579 -0.555,0 -0.953,-0.188 -1.203,-0.563 -0.25,-0.375 -0.375,-0.949 -0.375,-1.719 z m 5.297,0 c 0,-1.242 -0.328,-2.215 -0.985,-2.922 -0.656,-0.699 -1.574,-1.046 -2.75,-1.046 -0.73,0 -1.375,0.16 -1.937,0.484 -0.563,0.32 -0.996,0.781 -1.297,1.375 -0.305,0.601 -0.453,1.305 -0.453,2.109 0,1.25 0.32,2.219 0.969,2.907 0.656,0.695 1.578,1.046 2.765,1.046 0.727,0 1.375,-0.164 1.938,-0.484 0.562,-0.312 0.992,-0.773 1.297,-1.375 0.3,-0.594 0.453,-1.293 0.453,-2.094 z"
         style="fill:#ffffff;fill-opacity:1;fill-rule:nonzero;stroke:none"
         id="path38" />
      <path
         d="m 70.133,46.686 h -1.797 v -6.078 h -2.094 v 6.078 h -1.14 v 1 l 1.14,0.563 v 0.562 c 0,0.875 0.211,1.508 0.641,1.907 0.437,0.406 1.125,0.609 2.062,0.609 0.719,0 1.36,-0.109 1.922,-0.328 l -0.531,-1.531 c -0.418,0.132 -0.805,0.203 -1.156,0.203 -0.305,0 -0.524,-0.09 -0.657,-0.266 -0.125,-0.18 -0.187,-0.402 -0.187,-0.672 v -0.484 h 1.797 z m 0.687,3.547 c 0,0.676 0.379,1.016 1.141,1.016 0.758,0 1.141,-0.34 1.141,-1.016 0,-0.324 -0.102,-0.578 -0.297,-0.765 -0.188,-0.18 -0.469,-0.266 -0.844,-0.266 -0.762,0 -1.141,0.344 -1.141,1.031 z m 2.172,-9.625 h -2.078 v 7.641 h 2.078 z"
         style="fill:#ffffff;fill-opacity:1;fill-rule:nonzero;stroke:none"
         id="path40" />
      <path
         d="m 80.578,42.874 c 0,-0.781 -0.273,-1.383 -0.812,-1.797 -0.543,-0.406 -1.356,-0.609 -2.438,-0.609 -0.562,0 -1.043,0.043 -1.437,0.125 -0.387,0.07 -0.75,0.179 -1.094,0.328 v 1.718 c 0.383,-0.187 0.82,-0.343 1.312,-0.468 0.489,-0.118 0.914,-0.172 1.282,-0.172 0.757,0 1.14,0.219 1.14,0.656 0,0.164 -0.054,0.297 -0.156,0.391 -0.105,0.101 -0.281,0.218 -0.531,0.343 -0.242,0.133 -0.563,0.289 -0.969,0.469 -0.594,0.238 -1.031,0.461 -1.313,0.672 -0.273,0.219 -0.468,0.461 -0.593,0.734 -0.125,0.27 -0.188,0.602 -0.188,1 0,0.676 0.258,1.196 0.781,1.563 0.532,0.375 1.282,0.562 2.25,0.562 0.915,0 1.813,-0.199 2.688,-0.593 l -0.625,-1.5 c -0.387,0.156 -0.746,0.285 -1.078,0.39 -0.336,0.102 -0.672,0.157 -1.016,0.157 -0.617,0 -0.922,-0.165 -0.922,-0.485 0,-0.187 0.098,-0.355 0.297,-0.5 0.196,-0.137 0.629,-0.336 1.297,-0.594 0.602,-0.25 1.039,-0.48 1.313,-0.687 0.281,-0.211 0.484,-0.449 0.609,-0.719 0.133,-0.273 0.203,-0.601 0.203,-0.984 z"
         style="fill:#ffffff;fill-opacity:1;fill-rule:nonzero;stroke:none"
         id="path42" />
      <path
         d="m 52.609,23.733 -0.406,1.047 h -0.062 c -0.344,-0.449 -0.703,-0.762 -1.079,-0.937 -0.374,-0.165 -0.859,-0.25 -1.453,-0.25 -0.73,0 -1.308,0.207 -1.734,0.625 -0.418,0.425 -0.625,1.023 -0.625,1.796 0,0.813 0.281,1.411 0.844,1.797 0.57,0.383 1.426,0.598 2.562,0.641 l 1.328,0.047 v 0.328 c 0,0.769 -0.398,1.156 -1.187,1.156 -0.606,0 -1.324,-0.183 -2.156,-0.547 l -0.688,1.407 c 0.883,0.457 1.859,0.687 2.922,0.687 1.031,0 1.816,-0.227 2.359,-0.672 0.551,-0.449 0.828,-1.125 0.828,-2.031 v -5.094 z m -0.625,3.547 -0.796,-0.031 c -0.618,-0.024 -1.071,-0.133 -1.36,-0.328 -0.293,-0.2 -0.437,-0.508 -0.437,-0.922 0,-0.586 0.332,-0.875 1,-0.875 0.488,0 0.875,0.133 1.156,0.406 0.289,0.281 0.437,0.648 0.437,1.109 z"
         style="fill:#ffffff;fill-opacity:1;fill-rule:nonzero;stroke:none"
         id="path44" />
      <path
         d="m 60.16,31.514 c 0.281,0 0.516,-0.023 0.703,-0.062 l -0.156,-1.953 c -0.168,0.051 -0.371,0.078 -0.609,0.078 -0.668,0 -1.188,-0.172 -1.563,-0.516 -0.375,-0.343 -0.562,-0.824 -0.562,-1.437 v -3.891 h -2.078 v 7.641 h 1.578 l 0.312,-1.281 h 0.094 c 0.238,0.425 0.562,0.769 0.969,1.031 0.406,0.258 0.843,0.39 1.312,0.39 z"
         style="fill:#ffffff;fill-opacity:1;fill-rule:nonzero;stroke:none"
         id="path46" />
      <path
         d="m 66.289,31.514 c 0.906,0 1.613,-0.355 2.125,-1.062 0.508,-0.699 0.766,-1.664 0.766,-2.891 0,-1.261 -0.266,-2.242 -0.797,-2.937 -0.524,-0.688 -1.235,-1.031 -2.141,-1.031 -0.906,0 -1.617,0.328 -2.125,0.984 h -0.14 l -0.344,-0.844 h -1.594 v 10.641 h 2.078 v -2.485 c 0,-0.312 -0.027,-0.812 -0.078,-1.5 h 0.078 c 0.488,0.75 1.211,1.125 2.172,1.125 z m -0.672,-1.656 c -0.512,0 -0.887,-0.164 -1.125,-0.484 -0.242,-0.313 -0.367,-0.836 -0.375,-1.563 v -0.234 c 0,-0.813 0.117,-1.402 0.36,-1.766 0.25,-0.355 0.64,-0.531 1.171,-0.531 0.426,0 0.766,0.195 1.016,0.594 0.258,0.394 0.391,0.969 0.391,1.719 0,0.75 -0.133,1.312 -0.391,1.687 -0.25,0.383 -0.602,0.578 -1.047,0.578 z"
         style="fill:#ffffff;fill-opacity:1;fill-rule:nonzero;stroke:none"
         id="path48" />
      <path
         d="m 73.754,30.03 c -0.449,0 -0.797,-0.141 -1.047,-0.422 -0.25,-0.273 -0.391,-0.668 -0.422,-1.187 h 2.922 c -0.012,0.519 -0.148,0.914 -0.406,1.187 -0.262,0.281 -0.61,0.422 -1.047,0.422 z m 0.281,-6.437 c -1.23,0 -2.195,0.335 -2.89,1.015 -0.688,0.688 -1.032,1.649 -1.032,2.891 0,1.281 0.317,2.269 0.953,2.969 0.645,0.695 1.536,1.046 2.672,1.046 1.071,0 1.91,-0.308 2.516,-0.921 0.601,-0.618 0.906,-1.465 0.906,-2.547 V 27.03 h -4.937 c 0.031,-0.594 0.207,-1.059 0.531,-1.391 0.332,-0.324 0.797,-0.484 1.391,-0.484 0.457,0 0.89,0.047 1.296,0.141 0.407,0.093 0.832,0.242 1.282,0.453 v -1.61 c -0.368,-0.187 -0.758,-0.324 -1.172,-0.406 -0.406,-0.094 -0.914,-0.14 -1.516,-0.14 z"
         style="fill:#ffffff;fill-opacity:1;fill-rule:nonzero;stroke:none"
         id="path50" />
      <path
         d="m 78.477,33.358 c 0,0.676 0.378,1.016 1.14,1.016 0.758,0 1.141,-0.34 1.141,-1.016 0,-0.324 -0.102,-0.578 -0.297,-0.765 -0.188,-0.18 -0.469,-0.266 -0.844,-0.266 -0.762,0 -1.14,0.344 -1.14,1.031 z m 2.171,-9.625 H 78.57 v 7.641 h 2.078 z"
         style="fill:#ffffff;fill-opacity:1;fill-rule:nonzero;stroke:none"
         id="path52" />
      <path
         d="m 85.902,25.264 c 0.364,0 0.801,0.079 1.313,0.235 v -1.547 c -0.524,-0.238 -1.156,-0.359 -1.906,-0.359 -0.836,0 -1.446,0.207 -1.829,0.625 -0.386,0.425 -0.578,1.062 -0.578,1.906 v 3.687 h -0.984 v 0.875 l 1.141,0.703 0.609,1.61 h 1.328 v -1.625 h 2.141 v -1.563 h -2.141 v -3.687 c 0,-0.293 0.082,-0.512 0.25,-0.656 0.164,-0.137 0.383,-0.204 0.656,-0.204 z"
         style="fill:#ffffff;fill-opacity:1;fill-rule:nonzero;stroke:none"
         id="path54" />
      <path
         d="m 91.711,30.03 c -0.449,0 -0.797,-0.141 -1.047,-0.422 -0.25,-0.273 -0.391,-0.668 -0.422,-1.187 h 2.922 c -0.012,0.519 -0.148,0.914 -0.406,1.187 -0.262,0.281 -0.61,0.422 -1.047,0.422 z m 0.281,-6.437 c -1.23,0 -2.195,0.335 -2.89,1.015 -0.688,0.688 -1.032,1.649 -1.032,2.891 0,1.281 0.317,2.269 0.953,2.969 0.645,0.695 1.536,1.046 2.672,1.046 1.071,0 1.91,-0.308 2.516,-0.921 0.601,-0.618 0.906,-1.465 0.906,-2.547 V 27.03 H 90.18 c 0.031,-0.594 0.207,-1.059 0.531,-1.391 0.332,-0.324 0.797,-0.484 1.391,-0.484 0.457,0 0.89,0.047 1.296,0.141 0.407,0.093 0.832,0.242 1.282,0.453 v -1.61 c -0.368,-0.187 -0.758,-0.324 -1.172,-0.406 -0.406,-0.094 -0.914,-0.14 -1.516,-0.14 z"
         style="fill:#ffffff;fill-opacity:1;fill-rule:nonzero;stroke:none"
         id="path56" />
      <path
         d="m 103.59,23.733 h -2.094 v 4.469 c 0,0.551 -0.101,0.961 -0.297,1.234 -0.199,0.282 -0.511,0.422 -0.937,0.422 -0.586,0 -1.008,-0.199 -1.266,-0.594 -0.262,-0.386 -0.391,-1.031 -0.391,-1.937 v -3.594 h -2.078 v 7.641 h 1.594 l 0.281,-0.969 h 0.11 c 0.238,0.363 0.562,0.641 0.968,0.828 0.407,0.188 0.868,0.281 1.391,0.281 0.883,0 1.555,-0.242 2.016,-0.718 0.468,-0.481 0.703,-1.172 0.703,-2.078 z"
         style="fill:#ffffff;fill-opacity:1;fill-rule:nonzero;stroke:none"
         id="path58" />
    </g>
  </g>
</svg>
